<svg xmlns="http://www.w3.org/2000/svg" xmlns:xlink="http://www.w3.org/1999/xlink" width="500" zoomAndPan="magnify" viewBox="0 0 375 374.999991" height="500" preserveAspectRatio="xMidYMid meet" version="1.0"><defs><g/><clipPath id="0c4a78e6bc"><path d="M 126.914062 87.589844 L 248.414062 87.589844 L 248.414062 198.589844 L 126.914062 198.589844 Z M 126.914062 87.589844 " clip-rule="nonzero"/></clipPath></defs><path fill="#ff914d" d="M 187.664062 110.8125 C 203.574219 110.8125 216.472656 123.648438 216.472656 139.480469 C 216.472656 155.308594 203.574219 168.144531 187.664062 168.144531 L 159.210938 168.144531 C 162.570312 165.890625 165.613281 163.429688 168.433594 160.820312 L 168.445312 160.832031 C 162.558594 155.585938 158.859375 147.964844 158.859375 139.480469 C 158.859375 123.648438 171.757812 110.8125 187.664062 110.8125 Z M 187.664062 110.8125 " fill-opacity="1" fill-rule="evenodd"/><g clip-path="url(#0c4a78e6bc)"><path fill="#000000" d="M 141.753906 115.011719 L 140.988281 115.011719 C 133.246094 115.011719 126.914062 121.3125 126.914062 129.011719 L 126.914062 142.589844 C 126.914062 150.3125 133.277344 156.59375 140.988281 156.59375 L 148.753906 156.59375 C 146.425781 151.359375 145.132812 145.566406 145.132812 139.476562 C 145.132812 116.179688 164.097656 97.152344 187.664062 97.152344 C 211.234375 97.152344 230.199219 116.175781 230.199219 139.476562 C 230.199219 145.566406 228.90625 151.355469 226.578125 156.59375 C 221.339844 168.367188 210.859375 177.316406 198.082031 180.515625 C 196 176.945312 192.113281 174.550781 187.664062 174.550781 C 181.019531 174.550781 175.625 179.910156 175.625 186.53125 C 175.625 193.144531 181.019531 198.507812 187.664062 198.507812 C 193.09375 198.507812 197.6875 194.929688 199.1875 190.011719 C 216.84375 186.046875 231.097656 173.160156 236.910156 156.355469 C 243.433594 155.144531 248.414062 149.417969 248.414062 142.589844 L 248.414062 129.011719 C 248.414062 121.3125 242.082031 115.011719 234.339844 115.011719 L 233.574219 115.011719 C 224.796875 98.734375 207.53125 87.667969 187.664062 87.667969 C 167.800781 87.667969 150.53125 98.734375 141.75 115.011719 Z M 141.753906 115.011719 " fill-opacity="1" fill-rule="evenodd"/></g><g fill="#000000" fill-opacity="1"><g transform="translate(98.902973, 247.009328)"><g><path d="M 13.625 -4.96875 L 13.625 -9.65625 L 19.859375 -9.65625 L 19.859375 -5.71875 C 19.859375 -1.59375 17.921875 0.46875 14.046875 0.46875 L 8.15625 0.46875 C 4.28125 0.46875 2.34375 -1.59375 2.34375 -5.71875 L 2.34375 -24.59375 C 2.34375 -28.71875 4.28125 -30.78125 8.15625 -30.78125 L 14.046875 -30.78125 C 17.921875 -30.78125 19.859375 -28.71875 19.859375 -24.59375 L 19.859375 -21.734375 L 13.625 -21.734375 L 13.625 -25.390625 C 13.625 -25.640625 13.535156 -25.859375 13.359375 -26.046875 C 13.191406 -26.234375 12.984375 -26.328125 12.734375 -26.328125 L 9.796875 -26.328125 C 9.546875 -26.328125 9.332031 -26.234375 9.15625 -26.046875 C 8.988281 -25.859375 8.90625 -25.640625 8.90625 -25.390625 L 8.90625 -4.96875 C 8.90625 -4.71875 8.988281 -4.5 9.15625 -4.3125 C 9.332031 -4.125 9.546875 -4.03125 9.796875 -4.03125 L 12.734375 -4.03125 C 12.984375 -4.03125 13.191406 -4.125 13.359375 -4.3125 C 13.535156 -4.5 13.625 -4.71875 13.625 -4.96875 Z M 13.625 -4.96875 "/></g></g></g><g fill="#000000" fill-opacity="1"><g transform="translate(120.360174, 247.009328)"><g><path d="M 13.15625 -30.3125 L 19.71875 -30.3125 L 19.71875 -5.71875 C 19.71875 -1.59375 17.78125 0.46875 13.90625 0.46875 L 8.109375 0.46875 C 4.234375 0.46875 2.296875 -1.59375 2.296875 -5.71875 L 2.296875 -30.3125 L 8.859375 -30.3125 L 8.859375 -5.15625 C 8.859375 -4.90625 8.941406 -4.6875 9.109375 -4.5 C 9.285156 -4.3125 9.5 -4.21875 9.75 -4.21875 L 12.265625 -4.21875 C 12.515625 -4.21875 12.722656 -4.3125 12.890625 -4.5 C 13.066406 -4.6875 13.15625 -4.90625 13.15625 -5.15625 Z M 13.15625 -30.3125 "/></g></g></g><g fill="#000000" fill-opacity="1"><g transform="translate(142.239023, 247.009328)"><g><path d="M 19.15625 -22.34375 L 12.921875 -22.34375 L 12.921875 -24.734375 C 12.921875 -24.984375 12.832031 -25.203125 12.65625 -25.390625 C 12.488281 -25.578125 12.28125 -25.671875 12.03125 -25.671875 L 9.46875 -25.671875 C 9.21875 -25.671875 9.003906 -25.578125 8.828125 -25.390625 C 8.660156 -25.203125 8.578125 -24.984375 8.578125 -24.734375 L 8.578125 -19.34375 C 8.578125 -19.09375 8.660156 -18.875 8.828125 -18.6875 C 9.003906 -18.5 9.21875 -18.40625 9.46875 -18.40625 L 13.671875 -18.40625 C 17.546875 -18.34375 19.484375 -16.28125 19.484375 -12.21875 L 19.484375 -5.71875 C 19.484375 -1.59375 17.546875 0.46875 13.671875 0.46875 L 8.15625 0.46875 C 4.28125 0.46875 2.34375 -1.59375 2.34375 -5.71875 L 2.34375 -8.859375 L 8.578125 -8.859375 L 8.578125 -5.484375 C 8.578125 -5.234375 8.660156 -5.015625 8.828125 -4.828125 C 9.003906 -4.640625 9.21875 -4.546875 9.46875 -4.546875 L 12.359375 -4.546875 C 12.609375 -4.546875 12.816406 -4.640625 12.984375 -4.828125 C 13.160156 -5.015625 13.25 -5.234375 13.25 -5.484375 L 13.25 -11.4375 C 13.25 -11.675781 13.160156 -11.890625 12.984375 -12.078125 C 12.816406 -12.265625 12.609375 -12.359375 12.359375 -12.359375 L 8.15625 -12.359375 C 4.28125 -12.359375 2.34375 -14.421875 2.34375 -18.546875 L 2.34375 -24.59375 C 2.34375 -28.71875 4.28125 -30.78125 8.15625 -30.78125 L 13.34375 -30.78125 C 17.21875 -30.78125 19.15625 -28.71875 19.15625 -24.59375 Z M 19.15625 -22.34375 "/></g></g></g><g fill="#000000" fill-opacity="1"><g transform="translate(163.696224, 247.009328)"><g><path d="M 0.609375 -24.734375 L 0.609375 -30.3125 L 17 -30.3125 L 17 -24.734375 L 12.078125 -24.734375 L 12.078125 0 L 5.53125 0 L 5.53125 -24.734375 Z M 0.609375 -24.734375 "/></g></g></g><g fill="#000000" fill-opacity="1"><g transform="translate(181.358595, 247.009328)"><g><path d="M 20.1875 -24.59375 L 20.1875 -5.71875 C 20.1875 -1.59375 18.25 0.46875 14.375 0.46875 L 8.15625 0.46875 C 4.28125 0.46875 2.34375 -1.59375 2.34375 -5.71875 L 2.34375 -24.59375 C 2.34375 -28.71875 4.28125 -30.78125 8.15625 -30.78125 L 14.375 -30.78125 C 18.25 -30.78125 20.1875 -28.71875 20.1875 -24.59375 Z M 13.625 -4.96875 L 13.625 -25.390625 C 13.625 -25.640625 13.535156 -25.859375 13.359375 -26.046875 C 13.191406 -26.234375 12.984375 -26.328125 12.734375 -26.328125 L 9.796875 -26.328125 C 9.546875 -26.328125 9.332031 -26.234375 9.15625 -26.046875 C 8.988281 -25.859375 8.90625 -25.640625 8.90625 -25.390625 L 8.90625 -4.96875 C 8.90625 -4.71875 8.988281 -4.5 9.15625 -4.3125 C 9.332031 -4.125 9.546875 -4.03125 9.796875 -4.03125 L 12.734375 -4.03125 C 12.984375 -4.03125 13.191406 -4.125 13.359375 -4.3125 C 13.535156 -4.5 13.625 -4.71875 13.625 -4.96875 Z M 13.625 -4.96875 "/></g></g></g><g fill="#000000" fill-opacity="1"><g transform="translate(204.033887, 247.009328)"><g><path d="M 8.859375 0 L 2.296875 0 L 2.296875 -24.59375 C 2.296875 -28.71875 4.234375 -30.78125 8.109375 -30.78125 L 11.578125 -30.78125 C 13.847656 -30.78125 15.46875 -30.03125 16.4375 -28.53125 C 17.34375 -30.03125 18.96875 -30.78125 21.3125 -30.78125 L 24.78125 -30.78125 C 28.65625 -30.78125 30.59375 -28.71875 30.59375 -24.59375 L 30.59375 0 L 24.03125 0 L 24.03125 -25.15625 C 24.03125 -25.40625 23.941406 -25.625 23.765625 -25.8125 C 23.597656 -26 23.390625 -26.09375 23.140625 -26.09375 L 20.609375 -26.09375 C 20.359375 -26.09375 20.144531 -26 19.96875 -25.8125 C 19.800781 -25.625 19.71875 -25.40625 19.71875 -25.15625 L 19.71875 0 L 13.15625 0 L 13.15625 -25.15625 C 13.15625 -25.40625 13.066406 -25.625 12.890625 -25.8125 C 12.722656 -26 12.515625 -26.09375 12.265625 -26.09375 L 9.75 -26.09375 C 9.5 -26.09375 9.285156 -26 9.109375 -25.8125 C 8.941406 -25.625 8.859375 -25.40625 8.859375 -25.15625 Z M 8.859375 0 "/></g></g></g><g fill="#000000" fill-opacity="1"><g transform="translate(236.781882, 247.009328)"><g><path d="M 8.90625 -5.4375 L 16.15625 -5.4375 L 16.15625 0 L 2.34375 0 L 2.34375 -30.3125 L 16.15625 -30.3125 L 16.15625 -24.96875 L 8.90625 -24.96875 L 8.90625 -17.84375 L 15.6875 -17.84375 L 15.6875 -12.6875 L 8.90625 -12.6875 Z M 8.90625 -5.4375 "/></g></g></g><g fill="#000000" fill-opacity="1"><g transform="translate(254.397411, 247.009328)"><g><path d="M 8.90625 -12.40625 L 8.90625 0 L 2.34375 0 L 2.34375 -30.3125 L 14 -30.3125 C 17.875 -30.3125 19.8125 -28.25 19.8125 -24.125 L 19.8125 -20.609375 C 19.8125 -18.109375 18.921875 -16.515625 17.140625 -15.828125 C 18.703125 -15.265625 19.484375 -13.984375 19.484375 -11.984375 L 19.484375 0 L 12.921875 0 L 12.921875 -11.484375 C 12.921875 -12.097656 12.625 -12.40625 12.03125 -12.40625 Z M 8.90625 -25.859375 L 8.90625 -17 L 12.359375 -17 C 12.609375 -17 12.816406 -17.09375 12.984375 -17.28125 C 13.160156 -17.46875 13.25 -17.6875 13.25 -17.9375 L 13.25 -24.921875 C 13.25 -25.171875 13.160156 -25.390625 12.984375 -25.578125 C 12.816406 -25.765625 12.609375 -25.859375 12.359375 -25.859375 Z M 8.90625 -25.859375 "/></g></g></g><g fill="#ff914d" fill-opacity="1"><g transform="translate(143.671504, 280.847734)"><g><path d="M 9.390625 -10.953125 L 6.328125 -10.953125 L 6.328125 -12.125 C 6.328125 -12.238281 6.285156 -12.34375 6.203125 -12.4375 C 6.117188 -12.53125 6.019531 -12.578125 5.90625 -12.578125 L 4.640625 -12.578125 C 4.515625 -12.578125 4.410156 -12.53125 4.328125 -12.4375 C 4.242188 -12.34375 4.203125 -12.238281 4.203125 -12.125 L 4.203125 -9.484375 C 4.203125 -9.359375 4.242188 -9.25 4.328125 -9.15625 C 4.410156 -9.0625 4.515625 -9.015625 4.640625 -9.015625 L 6.703125 -9.015625 C 8.597656 -8.984375 9.546875 -7.972656 9.546875 -5.984375 L 9.546875 -2.796875 C 9.546875 -0.773438 8.597656 0.234375 6.703125 0.234375 L 4 0.234375 C 2.09375 0.234375 1.140625 -0.773438 1.140625 -2.796875 L 1.140625 -4.34375 L 4.203125 -4.34375 L 4.203125 -2.6875 C 4.203125 -2.5625 4.242188 -2.453125 4.328125 -2.359375 C 4.410156 -2.265625 4.515625 -2.21875 4.640625 -2.21875 L 6.0625 -2.21875 C 6.1875 -2.21875 6.289062 -2.265625 6.375 -2.359375 C 6.457031 -2.453125 6.5 -2.5625 6.5 -2.6875 L 6.5 -5.59375 C 6.5 -5.71875 6.457031 -5.828125 6.375 -5.921875 C 6.289062 -6.015625 6.1875 -6.0625 6.0625 -6.0625 L 4 -6.0625 C 2.09375 -6.0625 1.140625 -7.070312 1.140625 -9.09375 L 1.140625 -12.046875 C 1.140625 -14.066406 2.09375 -15.078125 4 -15.078125 L 6.546875 -15.078125 C 8.441406 -15.078125 9.390625 -14.066406 9.390625 -12.046875 Z M 9.390625 -10.953125 "/></g></g></g><g fill="#ff914d" fill-opacity="1"><g transform="translate(157.928516, 280.847734)"><g><path d="M 4.359375 -2.65625 L 7.921875 -2.65625 L 7.921875 0 L 1.140625 0 L 1.140625 -14.84375 L 7.921875 -14.84375 L 7.921875 -12.234375 L 4.359375 -12.234375 L 4.359375 -8.75 L 7.6875 -8.75 L 7.6875 -6.21875 L 4.359375 -6.21875 Z M 4.359375 -2.65625 "/></g></g></g><g fill="#ff914d" fill-opacity="1"><g transform="translate(170.303054, 280.847734)"><g><path d="M 4.359375 -6.078125 L 4.359375 0 L 1.140625 0 L 1.140625 -14.84375 L 6.859375 -14.84375 C 8.753906 -14.84375 9.703125 -13.835938 9.703125 -11.828125 L 9.703125 -10.09375 C 9.703125 -8.875 9.269531 -8.097656 8.40625 -7.765625 C 9.164062 -7.484375 9.546875 -6.851562 9.546875 -5.875 L 9.546875 0 L 6.328125 0 L 6.328125 -5.625 C 6.328125 -5.925781 6.1875 -6.078125 5.90625 -6.078125 Z M 4.359375 -12.671875 L 4.359375 -8.328125 L 6.0625 -8.328125 C 6.1875 -8.328125 6.289062 -8.375 6.375 -8.46875 C 6.457031 -8.5625 6.5 -8.671875 6.5 -8.796875 L 6.5 -12.21875 C 6.5 -12.332031 6.457031 -12.4375 6.375 -12.53125 C 6.289062 -12.625 6.1875 -12.671875 6.0625 -12.671875 Z M 4.359375 -12.671875 "/></g></g></g><g fill="#ff914d" fill-opacity="1"><g transform="translate(184.67485, 280.847734)"><g><path d="M 7.140625 -14.84375 L 10.234375 -14.84375 L 7.15625 0 L 3.46875 0 L 0.390625 -14.84375 L 3.515625 -14.84375 L 5.328125 -4.015625 Z M 7.140625 -14.84375 "/></g></g></g><g fill="#ff914d" fill-opacity="1"><g transform="translate(199.092559, 280.847734)"><g><path d="M 4.359375 -14.84375 L 4.359375 0 L 1.140625 0 L 1.140625 -14.84375 Z M 4.359375 -14.84375 "/></g></g></g><g fill="#ff914d" fill-opacity="1"><g transform="translate(208.436774, 280.847734)"><g><path d="M 6.671875 -2.4375 L 6.671875 -4.734375 L 9.734375 -4.734375 L 9.734375 -2.796875 C 9.734375 -0.773438 8.785156 0.234375 6.890625 0.234375 L 4 0.234375 C 2.09375 0.234375 1.140625 -0.773438 1.140625 -2.796875 L 1.140625 -12.046875 C 1.140625 -14.066406 2.09375 -15.078125 4 -15.078125 L 6.890625 -15.078125 C 8.785156 -15.078125 9.734375 -14.066406 9.734375 -12.046875 L 9.734375 -10.65625 L 6.671875 -10.65625 L 6.671875 -12.4375 C 6.671875 -12.5625 6.628906 -12.671875 6.546875 -12.765625 C 6.460938 -12.859375 6.363281 -12.90625 6.25 -12.90625 L 4.796875 -12.90625 C 4.671875 -12.90625 4.566406 -12.859375 4.484375 -12.765625 C 4.398438 -12.671875 4.359375 -12.5625 4.359375 -12.4375 L 4.359375 -2.4375 C 4.359375 -2.3125 4.398438 -2.203125 4.484375 -2.109375 C 4.566406 -2.015625 4.671875 -1.96875 4.796875 -1.96875 L 6.25 -1.96875 C 6.363281 -1.96875 6.460938 -2.015625 6.546875 -2.109375 C 6.628906 -2.203125 6.671875 -2.3125 6.671875 -2.4375 Z M 6.671875 -2.4375 "/></g></g></g><g fill="#ff914d" fill-opacity="1"><g transform="translate(222.693789, 280.847734)"><g><path d="M 4.359375 -2.65625 L 7.921875 -2.65625 L 7.921875 0 L 1.140625 0 L 1.140625 -14.84375 L 7.921875 -14.84375 L 7.921875 -12.234375 L 4.359375 -12.234375 L 4.359375 -8.75 L 7.6875 -8.75 L 7.6875 -6.21875 L 4.359375 -6.21875 Z M 4.359375 -2.65625 "/></g></g></g></svg>