<?xml version="1.0" encoding="UTF-8"?>
<svg id="Layer_1" data-name="Layer 1" xmlns="http://www.w3.org/2000/svg" xmlns:xlink="http://www.w3.org/1999/xlink" viewBox="0 0 1280 1280">
  <defs>
    <style>
      .cls-1 {
        fill: url(#linear-gradient-2);
      }

      .cls-2 {
        fill: url(#linear-gradient-3);
      }

      .cls-3 {
        fill: url(#linear-gradient);
      }

      .cls-4 {
        fill: url(#linear-gradient-4);
      }
    </style>
    <linearGradient id="linear-gradient" x1="143.84" y1="640" x2="1117.76" y2="640" gradientUnits="userSpaceOnUse">
      <stop offset="0" stop-color="#f4ea00"/>
      <stop offset=".43" stop-color="#ff9600"/>
      <stop offset="1" stop-color="#f4004b"/>
    </linearGradient>
    <linearGradient id="linear-gradient-2" x1="793.64" y1="412.68" x2="1136.16" y2="412.68" gradientUnits="userSpaceOnUse">
      <stop offset="0" stop-color="#fff"/>
      <stop offset=".52" stop-color="#f15a24"/>
      <stop offset="1" stop-color="red"/>
    </linearGradient>
    <linearGradient id="linear-gradient-3" x1="359.39" y1="920.86" x2="790.14" y2="490.1" gradientUnits="userSpaceOnUse">
      <stop offset="0" stop-color="aqua"/>
      <stop offset=".03" stop-color="#07f0fa"/>
      <stop offset=".1" stop-color="#15d2ef"/>
      <stop offset=".16" stop-color="#20bce8"/>
      <stop offset=".23" stop-color="#26afe3"/>
      <stop offset=".29" stop-color="#29abe2"/>
      <stop offset=".35" stop-color="#23b5e5"/>
      <stop offset=".46" stop-color="#15d3ef"/>
      <stop offset=".59" stop-color="aqua"/>
      <stop offset=".62" stop-color="#15e9f5"/>
      <stop offset=".73" stop-color="#6797ce"/>
      <stop offset=".82" stop-color="#a856b0"/>
      <stop offset=".9" stop-color="#d7279a"/>
      <stop offset=".96" stop-color="#f40a8d"/>
      <stop offset="1" stop-color="#f08"/>
    </linearGradient>
    <linearGradient id="linear-gradient-4" x1="803.42" y1="631.34" x2="871.49" y2="631.34" gradientUnits="userSpaceOnUse">
      <stop offset="0" stop-color="#f08"/>
      <stop offset=".21" stop-color="#fa2da4"/>
      <stop offset=".59" stop-color="#f47bd4"/>
      <stop offset=".87" stop-color="#efacf3"/>
      <stop offset="1" stop-color="#eebfff"/>
    </linearGradient>
  </defs>
  <path class="cls-3" d="m1105.33,1073.69c-12.43,4.44-23.82,7.84-34.18,10.21-10.36,2.37-20.57,3.55-30.63,3.55-15.39,0-29.59-2.51-42.61-7.55-13.02-5.03-25.38-13.91-37.07-26.63-11.69-12.72-23.01-30.19-33.96-52.38-10.95-22.2-21.9-50.38-32.85-84.56-10.95-34.18-22.35-75.17-34.18-122.96-11.84-47.79-24.41-103.8-37.73-168.02-13.32-64.21-27.74-137.39-43.28-219.51-15.54-82.12-32.63-174.52-51.27-277.22-9.47-4.14-18.35-6.95-26.63-8.43-8.29-1.48-16.72-2.22-25.3-2.22-5.92,0-11.99.44-18.2,1.33-6.21.89-12.14,2.37-17.76,4.44-5.62,2.07-10.8,4.96-15.54,8.66-4.74,3.7-8.59,8.36-11.54,13.98-32.26,60.97-69.55,136.8-111.86,227.5-42.32,90.71-90.56,195.54-144.71,314.5l-19.09,42.61c-29.59,64.22-60.3,131.39-92.11,201.53-31.81,70.14-65.48,143.68-100.99,220.62l6.21,4.44c6.21.29,13.1.51,20.64.67,7.55.15,13.83.22,18.87.22,8.88,0,17.31-.22,25.3-.67s15.39-2.07,22.2-4.88c6.81-2.81,13.17-7.32,19.09-13.54,5.92-6.21,11.24-14.94,15.98-26.19,3.84-9.77,7.99-20.64,12.43-32.63s9.61-26.26,15.54-42.84c5.92-16.57,12.8-36.03,20.64-58.37,7.84-22.34,17.09-48.61,27.74-78.79,6.81-19.53,14.87-42.02,24.19-67.47,9.32-25.45,19.75-53.41,31.3-83.9l23.53-61.26c26.04-66.88,55.78-140.12,89.22-219.73,33.44-79.6,71.47-163.5,114.08-251.69h2.66c7.4,44.39,14.94,88.19,22.64,131.39,7.69,43.21,15.24,84.71,22.64,124.51,7.4,39.8,14.65,77.54,21.75,113.19,7.1,35.66,13.76,68.14,19.98,97.44l11.54,54.6c12.43,57.41,24.26,107.8,35.51,151.15,11.24,43.36,22.2,80.72,32.85,112.09,10.65,31.37,21.23,57.41,31.74,78.13,10.5,20.72,21.31,37.22,32.4,49.5,11.1,12.28,22.64,20.93,34.62,25.97,11.99,5.03,24.78,7.55,38.4,7.55,23.97,0,51.49-4.44,82.57-13.32,31.07-8.88,63.62-21.75,97.66-38.62l-12.43-36.4Z"/>
  <path class="cls-1" d="m949.5,243.28c4.52-9.6,8.38-18.15,11.58-25.66l2.26.75c-2.08,18.7-3.72,37.77-4.95,57.21-1.23,19.45-2.31,38.94-3.24,58.47-.38,9.01-.75,19.95-1.13,32.8-.38,12.86-.75,26.67-1.13,41.44-.38,14.77-.71,30.09-.99,45.95-.28,15.86-.52,31.42-.71,46.7-.19,15.27-.33,29.71-.42,43.32-.1,13.61-.14,25.58-.14,35.93v22.04c0,19.7,1.31,36.23,3.96,49.58,2.63,13.36,6.64,24.13,12,32.3,5.37,8.18,12.1,14.06,20.19,17.65,8.09,3.59,17.51,5.38,28.24,5.38,7.91,0,16.1-.59,24.57-1.75,8.47-1.17,17.6-2.97,27.39-5.38,9.78-2.42,20.38-5.51,31.77-9.26,11.39-3.76,23.86-8.22,37.42-13.4l-7.91-20.53c-6.21,1.84-11.72,3.34-16.52,4.51-4.8,1.17-9.18,2.05-13.13,2.63-3.96.59-7.77.96-11.44,1.13-3.67.17-7.48.25-11.43.25-10.73,0-19.68-1.83-26.83-5.51-7.16-3.67-12.85-9.47-17.09-17.4-4.23-7.93-7.2-18.16-8.89-30.67-1.7-12.52-2.54-27.63-2.54-45.32,0-26.71.14-52.34.42-76.87.28-24.54.71-48.58,1.27-72.11.56-23.54,1.41-46.87,2.54-69.99,1.13-23.12,2.45-46.53,3.96-70.23,1.5-23.7,3.34-48.08,5.5-73.12,2.16-25.04,4.66-51.24,7.48-78.62-6.03-2.33-12.28-4.13-18.78-5.38-6.49-1.25-12.47-1.88-17.93-1.88-3.2,0-6.69.25-10.45.75-3.77.5-7.39,1.38-10.87,2.63-3.48,1.25-6.69,2.97-9.6,5.13-2.92,2.17-5.22,4.93-6.92,8.27-15.63,31.05-31.16,62.01-46.6,92.9-15.44,30.89-30.64,61.35-45.61,91.39-14.97,30.05-29.56,59.43-43.77,88.14-12.92,26.09-25.34,51.23-37.4,75.66l10.77,53.17h0c8.34-17.21,16.65-34.34,24.93-51.33,17.6-36.14,35.01-71.57,52.24-106.3,17.22-34.72,34.12-68.27,50.69-100.66,6.96-13.52,12.71-25.08,17.22-34.68Z"/>
  <g>
    <path class="cls-2" d="m688.72,524.38l-8.76-42.32c-5.94-.78-11.9-1.41-17.91-1.77-26.35-1.58-52.91.44-79.7,6.05-26.79,5.61-52.84,14.1-78.15,25.49-25.31,11.38-49.21,25.38-71.7,41.99-22.49,16.61-42.7,35.14-60.62,55.58-13.32,15.19-25,31.54-35.04,49.09-10.04,17.54-18.03,35.68-23.96,54.42-5.93,18.74-9.55,37.78-10.84,57.13-1.3,19.36.18,38.38,4.43,57.1,4.26,18.71,11.49,36.77,21.72,54.18,10.23,17.4,23.9,33.62,41.03,48.64,31.54,27.66,67.21,45.5,107.01,53.54,39.79,8.03,82.53,5.05,128.22-8.95l1.61-.66c.36-.02.89-.42,1.58-1.2,1.02-1.17,1.54-2.94,1.57-5.33.02-2.38-.14-4.94-.5-7.67-.37-2.73-1-5.44-1.91-8.14-.92-2.69-1.69-4.84-2.35-6.45-35.23,5.61-66.01,5.06-92.31-1.65-26.32-6.72-48.33-17.85-66.04-33.38-16.75-14.69-29.02-32.5-36.81-53.46-7.8-20.96-10.89-43.55-9.26-67.79,1.62-24.23,8.18-49.48,19.67-75.74,11.48-26.26,28.25-51.95,50.27-77.06,12.29-14.02,25.86-27.52,40.7-40.51,14.83-12.99,30.49-24.66,46.97-35.01,16.47-10.35,33.35-18.79,50.63-25.34,17.27-6.54,34.63-10.44,52.08-11.67,9.57-.68,19.03-.29,28.4.98l-.02-.08Z"/>
    <path class="cls-4" d="m869.38,632.68c-3.8-15.9-10.9-31.85-21.3-47.87-10.41-16.02-23.6-31.03-39.56-45.03-1.33-1.16-2.72-2.15-4.06-3.28l39.49,189.68c1.98-1.88,3.93-3.89,5.84-6.07,10.75-12.26,17.65-25.93,20.7-40.99,3.05-15.06,2.67-30.54-1.12-46.44Z"/>
  </g>
</svg>